<?xml version="1.0" encoding="utf-8"?>
<!-- Generator: Adobe Illustrator 23.0.5, SVG Export Plug-In . SVG Version: 6.00 Build 0)  -->
<svg version="1.1" id="Layer_1" xmlns="http://www.w3.org/2000/svg" xmlns:xlink="http://www.w3.org/1999/xlink" x="0px" y="0px"
	 viewBox="0 0 566 566" style="enable-background:new 0 0 566 566;" xml:space="preserve">
<style type="text/css">
	.st0{fill-rule:evenodd;clip-rule:evenodd;fill:#BDBFC1;}
	.st1{fill-rule:evenodd;clip-rule:evenodd;fill:#C00203;}
	.st2{fill-rule:evenodd;clip-rule:evenodd;fill:#C7C9CB;}
	.st3{fill-rule:evenodd;clip-rule:evenodd;fill:#D2D3D5;}
	.st4{fill-rule:evenodd;clip-rule:evenodd;fill:#9C9C9C;}
</style>
<path class="st0" d="M195.6,246.9h-60.9l-14.2,73.5h61.9l3.6-18.7h-39.7l2.1-10.7h35.1l3.3-17h-35.1l1.8-9.2h38.7L195.6,246.9z
	 M124.9,246.9h-22.5l-9.7,49.9c-1,5.1-3,7.2-7,7.2c-6.9,0-4.6-7.5-3.7-12.4l0.4-2.2H62.3l-1.1,5.5c-3.3,16.9,4,27.1,21.9,27.1
	c17.3,0,29-9,32.3-26.3L124.9,246.9z M265.4,246.9h-63.7l-3.5,17.9h20.5l-10.8,55.6h22.5l10.8-55.6H262L265.4,246.9z"/>
<path class="st1" d="M408.3,246.9l-14.2,73.5h38.6c14.3,0,29.1-5.1,32.5-22.3c1.8-9.5-1.6-15.2-9.3-18.1c6.2-3.3,10.6-7.5,12-14.8
	c2.9-15.2-10.4-18.4-22.6-18.4H408.3z M426.9,263.6h11.7c5.3,0,7.5,2,6.7,5.8c-0.7,3.5-3.7,5.6-7.9,5.6h-12.7L426.9,263.6z
	 M470.7,311.2l0.2-0.9l0.8,0.1l-0.2,0.9L470.7,311.2z M471.8,310.3l0.1-0.8l0.9,0.2l-0.1,0.8L471.8,310.3z M472.4,306.5l0.1-0.8
	l0.9,0.2l-0.1,0.8L472.4,306.5z M473,302.6l0.2-0.9l0.9,0.2l-0.2,0.9L473,302.6z M473.7,298.7l0.1-0.8l0.9,0.2l-0.1,0.8L473.7,298.7
	z M474.3,294.9l0.1-0.8l0.9,0.2l-0.1,0.8L474.3,294.9z M474.9,291.1l0.2-0.9l0.9,0.2l-0.2,0.9L474.9,291.1z M473,309.5l0.1-0.8
	l0.8,0.1l-0.1,0.8L473,309.5z M473.6,305.7l0.2-0.9l0.8,0.1l-0.2,0.9L473.6,305.7z M474.2,301.8l0.1-0.8l0.8,0.1l-0.1,0.8
	L474.2,301.8z M474.5,299.9l0.2-0.9l0.8,0.1l-0.2,0.9L474.5,299.9z M475.2,296l0.1-0.8l0.8,0.1l-0.1,0.8L475.2,296z M475.8,292.2
	l0.1-0.8l0.8,0.1l-0.1,0.8L475.8,292.2z M474,308.8l0.2-0.9l0.8,0.1l-0.2,0.9L474,308.8z M474.7,304.8l0.1-0.8l0.8,0.1l-0.1,0.8
	L474.7,304.8z M475.3,301l0.1-0.8l0.8,0.1l-0.1,0.8L475.3,301z M475.9,297.2l0.2-0.9l0.8,0.1l-0.2,0.9L475.9,297.2z M476.6,293.2
	l0.1-0.8l0.8,0.1l-0.1,0.8L476.6,293.2z M475.1,307.9l0.1-0.8l0.9,0.2l-0.1,0.8L475.1,307.9z M475.8,304l0.1-0.8l0.9,0.2l-0.1,0.8
	L475.8,304z M476.7,298.3l0.1-0.8l0.9,0.2l-0.1,0.8L476.7,298.3z M477.3,294.4l0.2-0.9l0.9,0.2l-0.2,0.9L477.3,294.4z M476.3,307.1
	l0.1-0.8l0.8,0.1l-0.1,0.8L476.3,307.1z M477,303.3l0.2-0.9l0.8,0.1l-0.2,0.9L477,303.3z M477.6,299.4l0.1-0.8l0.8,0.1l-0.1,0.8
	L477.6,299.4z M478.2,295.5l0.1-0.8l0.8,0.1l-0.1,0.8L478.2,295.5z M477.4,306.3l0.2-0.9l0.8,0.1l-0.2,0.9L477.4,306.3z
	 M478.1,302.4l0.1-0.8l0.8,0.1l-0.1,0.8L478.1,302.4z M478.4,300.5l0.2-0.9l0.8,0.1l-0.2,0.9L478.4,300.5z M479,296.6l0.1-0.8
	l0.8,0.1l-0.1,0.8L479,296.6z M478.5,305.4l0.1-0.8l0.9,0.2l-0.1,0.8L478.5,305.4z M479.1,301.6l0.1-0.8l0.9,0.2l-0.1,0.8
	L479.1,301.6z M479.8,297.8l0.2-0.9l0.9,0.2l-0.2,0.9L479.8,297.8z M479.7,304.7l0.1-0.8l0.8,0.1l-0.1,0.8L479.7,304.7z
	 M480.7,298.9l0.1-0.8l0.8,0.1l-0.1,0.8L480.7,298.9z M480.8,303.9l0.2-0.9l0.8,0.1l-0.2,0.9L480.8,303.9z M481.4,300l0.1-0.8
	l0.8,0.1l-0.1,0.8L481.4,300z M481.9,303l0.1-0.8l0.9,0.2l-0.1,0.8L481.9,303z M482.2,301.2l0.2-0.9l0.9,0.2l-0.2,0.9L482.2,301.2z
	 M483.1,302.3l0.1-0.8l0.8,0.1l-0.1,0.8L483.1,302.3z M483.2,307.3l0.2-1l-0.9-0.2l0.1-0.8l0.9,0.2l0.2-0.9l0.8,0.1l-0.2,0.9l1,0.2
	l-0.1,0.8l-1-0.2l-0.2,1L483.2,307.3z M484.9,302.6l0.1-0.8l0.9,0.2l-0.1,0.8L484.9,302.6z M485.8,303.7l0.1-0.8l0.8,0.1l-0.1,0.8
	L485.8,303.7z M486.1,301.8l0.2-0.9l0.8,0.1l-0.2,0.9L486.1,301.8z M486.6,304.9l0.2-0.9l0.8,0.1l-0.2,0.9L486.6,304.9z
	 M487.2,300.9l0.1-0.8l0.8,0.1l-0.1,0.8L487.2,300.9z M487.4,305.9l0.1-0.8l0.9,0.2l-0.1,0.8L487.4,305.9z M488.3,300.1l0.1-0.8
	l0.9,0.2l-0.1,0.8L488.3,300.1z M488.3,307l0.1-0.8l0.8,0.1l-0.1,0.8L488.3,307z M488.9,303.2l0.1-0.8l0.8,0.1l-0.1,0.8L488.9,303.2
	z M489.5,299.4l0.2-0.9l0.8,0.1l-0.2,0.9L489.5,299.4z M489,308.2l0.2-0.9l0.8,0.1l-0.2,0.9L489,308.2z M489.7,304.3l0.1-0.8
	l0.8,0.1l-0.1,0.8L489.7,304.3z M490,302.4l0.2-0.9l0.8,0.1l-0.2,0.9L490,302.4z M490.6,298.5l0.1-0.8l0.8,0.1l-0.1,0.8L490.6,298.5
	z M489.8,309.3l0.1-0.8l0.9,0.2l-0.1,0.8L489.8,309.3z M490.4,305.5l0.2-0.9l0.9,0.2l-0.2,0.9L490.4,305.5z M491.1,301.6l0.1-0.8
	l0.9,0.2l-0.1,0.8L491.1,301.6z M491.7,297.7l0.1-0.8l0.9,0.2l-0.1,0.8L491.7,297.7z M490.7,310.4l0.1-0.8l0.8,0.1l-0.1,0.8
	L490.7,310.4z M491.3,306.6l0.1-0.8l0.8,0.1l-0.1,0.8L491.3,306.6z M492.3,300.8l0.1-0.8l0.8,0.1l-0.1,0.8L492.3,300.8z M492.9,297
	l0.2-0.9l0.8,0.1l-0.2,0.9L492.9,297z M491.4,311.6l0.2-0.9l0.8,0.1l-0.2,0.9L491.4,311.6z M492.1,307.7l0.1-0.8l0.8,0.1l-0.1,0.8
	L492.1,307.7z M492.7,303.8l0.1-0.8l0.8,0.1l-0.1,0.8L492.7,303.8z M493.3,300l0.2-0.9l0.8,0.1l-0.2,0.9L493.3,300z M494,296.1
	l0.1-0.8l0.8,0.1l-0.1,0.8L494,296.1z M494.4,299.1l0.1-0.8l0.9,0.2l-0.1,0.8L494.4,299.1z M495.1,295.3l0.1-0.8l0.9,0.2l-0.1,0.8
	L495.1,295.3z M489.9,320.4h1.4l0.7-3.8l-0.6-0.1l-0.2,1l-0.9-0.2l-0.2,0.9l-0.9-0.2l-0.2,1l0.9,0.2L489.9,320.4z M486.9,320.4h1.1
	l0.1-0.4l-1-0.2L486.9,320.4z M473,320.4h3.1l0.1-0.3l1,0.2l0.2-1l-1-0.2l0.2-0.9l-1-0.2l-0.2,0.9l-0.9-0.2l-0.2,0.9l-1-0.2
	L473,320.4z M480.9,320.4h1.1l0.1-0.3l1,0.2l0.2-0.9l0.9,0.2l0.2-1l0.9,0.2l0.2-1l-0.9-0.2l0.2-0.9l-0.9-0.2l0.2-1l-1-0.2l0.2-0.9
	l-1-0.2l-0.2,0.9l-0.9-0.2l-0.2,1l-1-0.2l-0.2,0.9l-0.9-0.2l-0.2,1l0.9,0.2l-0.2,1l1,0.2l-0.2,0.9l0.9,0.2L480.9,320.4z
	 M481.3,318.9l0.2-1l-0.9-0.2l0.1-0.8l0.9,0.2l0.2-0.9l0.8,0.1l-0.2,0.9l1,0.2l-0.1,0.8l-1-0.2l-0.2,1L481.3,318.9z M485,295.8
	l-0.2,0.9l1,0.2l0.2-0.9l1,0.2l0.2-1.2l-1-0.2l0.2-0.9l-1-0.2l-0.2,0.9l-0.9-0.2l-0.2,1.2L485,295.8z M479.3,270.9l0.2-0.9l0.8,0.1
	l-0.2,0.9L479.3,270.9z M479.9,267l0.1-0.8l0.8,0.1l-0.1,0.8L479.9,267z M480.6,263.2l0.1-0.8l0.8,0.1l-0.1,0.8L480.6,263.2z
	 M480.9,261.2l0.1-0.8l0.8,0.1l-0.1,0.8L480.9,261.2z M481.5,257.4l0.1-0.8l0.8,0.1l-0.1,0.8L481.5,257.4z M482.1,253.6l0.2-0.9
	l0.8,0.1l-0.2,0.9L482.1,253.6z M480.4,270.1l0.1-0.8l0.8,0.1l-0.1,0.8L480.4,270.1z M481,266.2l0.1-0.8l0.8,0.1l-0.1,0.8L481,266.2
	z M481.6,262.4l0.2-0.9l0.8,0.1l-0.2,0.9L481.6,262.4z M482.3,258.5l0.1-0.8l0.8,0.1l-0.1,0.8L482.3,258.5z M482.9,254.6l0.1-0.8
	l0.8,0.1l-0.1,0.8L482.9,254.6z M481.5,269.3l0.1-0.8l0.9,0.2l-0.1,0.8L481.5,269.3z M482.1,265.4l0.2-0.9l0.9,0.2l-0.2,0.9
	L482.1,265.4z M483,259.7l0.2-0.9l0.9,0.2l-0.2,0.9L483,259.7z M483.7,255.7l0.1-0.8l0.9,0.2l-0.1,0.8L483.7,255.7z M482.7,268.5
	l0.2-0.9l0.8,0.1l-0.2,0.9L482.7,268.5z M483.3,264.6l0.1-0.8l0.8,0.1l-0.1,0.8L483.3,264.6z M483.9,260.8l0.1-0.8l0.8,0.1l-0.1,0.8
	L483.9,260.8z M484.6,256.9l0.2-0.9l0.8,0.1l-0.2,0.9L484.6,256.9z M483.8,267.6l0.1-0.8l0.8,0.1l-0.1,0.8L483.8,267.6z
	 M484.4,263.8l0.1-0.8l0.8,0.1l-0.1,0.8L484.4,263.8z M484.7,261.8l0.1-0.8l0.8,0.1l-0.1,0.8L484.7,261.8z M485.3,258l0.1-0.8
	l0.8,0.1l-0.1,0.8L485.3,258z M484.8,266.9l0.1-0.8l0.9,0.2l-0.1,0.8L484.8,266.9z M485.5,263l0.2-0.9l0.9,0.2l-0.2,0.9L485.5,263z
	 M486.1,259.1l0.1-0.8l0.9,0.2l-0.1,0.8L486.1,259.1z M486,266.1l0.2-0.9l0.8,0.1l-0.2,0.9L486,266.1z M487,260.3l0.2-0.9l0.8,0.1
	l-0.2,0.9L487,260.3z M487.1,265.2l0.1-0.8l0.8,0.1l-0.1,0.8L487.1,265.2z M487.8,261.4l0.1-0.8l0.8,0.1l-0.1,0.8L487.8,261.4z
	 M488.2,264.4l0.1-0.8l0.9,0.2l-0.1,0.8L488.2,264.4z M488.5,262.5l0.1-0.8l0.9,0.2l-0.1,0.8L488.5,262.5z M489.4,263.7l0.2-0.9
	l0.8,0.1l-0.2,0.9L489.4,263.7z M490.8,260.9l0.2-1l-0.9-0.2l0.1-0.8l0.9,0.2l0.2-0.9l0.8,0.1l-0.2,0.9l1,0.2l-0.1,0.8l-1-0.2
	l-0.2,1L490.8,260.9z M491.3,264l0.2-0.9l0.9,0.2l-0.2,0.9L491.3,264z M492.1,265.1l0.1-0.8l0.8,0.1l-0.1,0.8L492.1,265.1z
	 M492.5,263.1l0.1-0.8l0.8,0.1l-0.1,0.8L492.5,263.1z M492.9,266.2l0.1-0.8l0.8,0.1l-0.1,0.8L492.9,266.2z M493.6,262.3l0.1-0.8
	l0.8,0.1l-0.1,0.8L493.6,262.3z M493.7,267.3l0.2-0.9l0.9,0.2l-0.2,0.9L493.7,267.3z M494.6,261.6l0.2-0.9l0.9,0.2l-0.2,0.9
	L494.6,261.6z M494.6,268.4l0.1-0.8l0.8,0.1l-0.1,0.8L494.6,268.4z M495.2,264.6l0.2-0.9l0.8,0.1l-0.2,0.9L495.2,264.6z
	 M495.8,260.7l0.1-0.8l0.8,0.1l-0.1,0.8L495.8,260.7z M495.3,269.5l0.1-0.8l0.8,0.1l-0.1,0.8L495.3,269.5z M496,265.7l0.1-0.8
	l0.8,0.1l-0.1,0.8L496,265.7z M496.3,263.7l0.1-0.8l0.8,0.1l-0.1,0.8L496.3,263.7z M496.9,259.9l0.1-0.8l0.8,0.1l-0.1,0.8
	L496.9,259.9z M496.1,270.7l0.2-0.9l0.9,0.2l-0.2,0.9L496.1,270.7z M496.7,266.8l0.1-0.8l0.9,0.2l-0.1,0.8L496.7,266.8z M497.4,263
	l0.1-0.8l0.9,0.2l-0.1,0.8L497.4,263z M498,259.1l0.2-0.9l0.9,0.2l-0.2,0.9L498,259.1z M497,271.8l0.1-0.8l0.8,0.1l-0.1,0.8
	L497,271.8z M497.6,268l0.2-0.9l0.8,0.1l-0.2,0.9L497.6,268z M498.6,262.2l0.2-0.9l0.8,0.1l-0.2,0.9L498.6,262.2z M499.2,258.3
	l0.1-0.8l0.8,0.1l-0.1,0.8L499.2,258.3z M497.8,272.9l0.1-0.8l0.8,0.1l-0.1,0.8L497.8,272.9z M498.4,269.1l0.1-0.8l0.8,0.1l-0.1,0.8
	L498.4,269.1z M499,265.2l0.2-0.9l0.8,0.1l-0.2,0.9L499,265.2z M499.7,261.3l0.1-0.8l0.8,0.1l-0.1,0.8L499.7,261.3z M500.3,257.5
	l0.1-0.8l0.8,0.1l-0.1,0.8L500.3,257.5z M498.5,274.1l0.2-0.9l0.9,0.2l-0.2,0.9L498.5,274.1z M499.2,270.2l0.1-0.8l0.9,0.2l-0.1,0.8
	L499.2,270.2z M499.8,266.3l0.1-0.8l0.9,0.2l-0.1,0.8L499.8,266.3z M500.1,264.4l0.1-0.8l0.9,0.2l-0.1,0.8L500.1,264.4z
	 M500.7,260.5l0.1-0.8l0.9,0.2l-0.1,0.8L500.7,260.5z M501.4,256.7l0.2-0.9l0.9,0.2l-0.2,0.9L501.4,256.7z M500.7,267.4l0.1-0.8
	l0.8,0.1l-0.1,0.8L500.7,267.4z M501.3,263.6l0.1-0.8l0.8,0.1l-0.1,0.8L501.3,263.6z M501.9,259.8l0.2-0.9l0.8,0.1l-0.2,0.9
	L501.9,259.8z M502.6,255.8l0.1-0.8l0.8,0.1l-0.1,0.8L502.6,255.8z M500,246.9h-1.1l-0.1,0.6l1,0.2L500,246.9z M505.5,246.9h-1.6
	l0,0.2l-1-0.2l-0.2,1l-0.9-0.2l-0.2,0.9l-0.9-0.2l-0.2,1l0.9,0.2l-0.2,1l0.9,0.2l-0.2,0.9l1,0.2l-0.1,0.8l-1-0.2l-0.2,1l-0.8-0.1
	l0.2-1l-0.9-0.2l0.2-0.9l-1-0.2l0.2-0.9l-1-0.2l-0.2,0.9l-0.9-0.2l-0.2,1l0.9,0.2l-0.2,1l0.9,0.2l-0.2,0.9l1,0.2l-0.1,0.8l-1-0.2
	l-0.2,1l-0.8-0.1l0.2-1l-0.9-0.2l0.2-0.9l-1-0.2l0.2-0.9l-1-0.2l-0.2,0.9l-0.9-0.2l-0.2,1l0.9,0.2l-0.2,1l0.9,0.2l-0.2,0.9l1,0.2
	l-0.1,0.8l-1-0.2l-0.2,1l-0.8-0.1l0.2-1l-0.9-0.2l0.2-0.9l-1-0.2l0.2-0.9l-1-0.2l-0.2,0.9l-0.9-0.2l-0.2,0.9l-1-0.2l-0.2,1l-0.8-0.1
	l0.2-1l-0.9-0.2l0.1-0.8l0.9,0.2l0.2-0.9l0.9,0.2l0.2-1l1,0.2l0.2-1l-1-0.2l0.2-0.9l-1-0.2l-0.2,0.9l-0.9-0.2l-0.2,0.9l-1-0.2
	l-0.2,1l-0.8-0.1l0.2-1l-0.9-0.2l0.1-0.8l0.9,0.2l0.2-0.9l0.9,0.2l0.2-1l1,0.2l0.2-1l-1-0.2l0.2-0.9l-1-0.2l-0.2,0.9l-0.9-0.2
	l-0.2,0.9l-1-0.2l-0.2,1l-0.8-0.1l0.2-1l-0.9-0.2l0.1-0.8l0.9,0.2l0.2-0.9l0.9,0.2l0.2-1l1,0.2l0.1-0.4H483l-0.9,4.7l0.2,0l-0.1,0.8
	l-0.2,0l-0.6,3l0.3,0.1l-0.2,0.9l-0.4-0.1l-0.6,3l0.4,0.1l-0.1,0.8l-0.5-0.1l-0.6,3l0.6,0.1l-0.1,0.8l-0.6-0.1l-0.6,3l0.7,0.1
	l-0.2,0.9l-0.7-0.1l-0.6,3l0.8,0.1l-0.1,0.8l-0.8-0.1l-0.6,3l1,0.2l0.2-0.9l0.9,0.2l0.2-1l0.9,0.2l0.2-0.9l1,0.2l0.2-0.9l0.9,0.2
	l0.2-1l0.9,0.2l0.2-0.9l1,0.2l0.2-0.9l0.9,0.2l0.2-1l0.9,0.2l0.2-0.9l1,0.2l0.2-0.9l0.9,0.2l0.2-1l0.8,0.1l-0.2,1l1,0.2l-0.2,0.9
	l0.9,0.2l-0.2,0.9l0.9,0.2l-0.2,1l1,0.2l-0.2,0.9l0.9,0.2l-0.2,0.9l0.9,0.2l-0.2,1l1,0.2l-0.2,0.9l0.9,0.2l-0.2,0.9l0.9,0.2l-0.2,1
	l1,0.2l-0.2,0.9l0.6,0.1l0.6-3l-0.6-0.1l0.1-0.8l0.6,0.1l0.6-3l-0.7-0.1l0.2-0.9l0.7,0.1l1.5-7.7l0,0l0.2-0.9l0.1,0l0.6-3l-0.1,0
	l0.1-0.8l0.2,0l0.6-3l-0.3,0l0.1-0.8l0.3,0l0.6-3l-0.4-0.1l0.2-1l-0.9-0.2l0.1-0.8l0.9,0.2l0.2-0.9l0.4,0.1L505.5,246.9z
	 M483.5,281.6l0.9,0.2l0.2-0.9l0.9,0.2l0.2-1l1,0.2l0.2-0.9l0.9,0.2l0.2-0.9l0.8,0.1l-0.2,0.9l1,0.2l-0.2,0.9l0.9,0.2l-0.2,1
	l0.9,0.2l-0.2,0.9l1,0.2l-0.1,0.8l-1-0.2l-0.2,1l-0.9-0.2l-0.2,0.9l-0.9-0.2l-0.2,0.9l-1-0.2l-0.2,1l-0.8-0.1l0.2-1l-0.9-0.2
	l0.2-0.9l-1-0.2l0.2-0.9l-0.9-0.2l0.2-1l-0.9-0.2L483.5,281.6z M478.8,278.8l-0.2,1l0.9,0.2l-0.2,0.9l1,0.2l-0.1,0.8l-1-0.2l-0.2,1
	l-0.9-0.2l-0.2,0.9l-0.9-0.2l-0.2,1l0.9,0.2l-0.2,1l1,0.2l0.2-1l1,0.2l0.2-0.9l0.9,0.2l0.2-0.9l0.8,0.1l-0.2,0.9l1,0.2l-0.1,0.8
	l-1-0.2l-0.2,1l-0.9-0.2l-0.2,0.9l-0.9-0.2l-0.2,1l0.9,0.2l-0.2,1l1,0.2l0.2-1l1,0.2l0.2-0.9l0.9,0.2l0.2-0.9l0.8,0.1l-0.2,0.9
	l1,0.2l-0.1,0.8l-1-0.2l-0.2,1l-0.9-0.2l-0.2,0.9l-0.9-0.2l-0.2,1l0.9,0.2l-0.2,1l1,0.2l0.2-1l1,0.2l0.2-0.9l0.9,0.2l0.2-0.9
	l0.8,0.1l-0.2,0.9l1,0.2l-0.2,0.9l0.9,0.2l-0.2,1l1,0.2l0.2-1l1,0.2l0.2-1l-1-0.2l0.2-0.9l-0.9-0.2l0.2-1l-0.9-0.2l0.1-0.8l0.9,0.2
	l0.2-0.9l0.8,0.1l-0.2,0.9l1,0.2l-0.2,0.9l0.9,0.2l-0.2,1l1,0.2l0.2-1l1,0.2l0.2-1l-1-0.2l0.2-0.9l-0.9-0.2l0.2-1l-0.9-0.2l0.1-0.8
	l0.9,0.2l0.2-0.9l0.8,0.1l-0.2,0.9l1,0.2l-0.2,0.9l0.9,0.2l-0.2,1l1,0.2l0.2-1l1,0.2l0.2-1l-1-0.2l0.2-0.9l-0.9-0.2l0.2-1l-0.9-0.2
	l0.1-0.8l0.9,0.2l0.2-0.9l0.9,0.2l0.2-1l1,0.2l0.2-1l-1-0.2l0.2-0.9l-1-0.2l-0.2,0.9l-0.9-0.2l-0.2,0.9l-1-0.2l-0.2,1l-0.8-0.1
	l0.2-1l-0.9-0.2l0.1-0.8l0.9,0.2l0.2-0.9l0.9,0.2l0.2-1l1,0.2l0.2-1l-1-0.2l0.2-0.9l-1-0.2l-0.2,0.9l-0.9-0.2l-0.2,0.9l-1-0.2
	l-0.2,1l-0.8-0.1l0.2-1l-0.9-0.2l0.1-0.8l0.9,0.2l0.2-0.9l0.9,0.2l0.2-1l1,0.2l0.2-1l-1-0.2l0.2-0.9l-1-0.2l-0.2,0.9l-0.9-0.2
	l-0.2,0.9l-1-0.2l-0.2,1l-0.8-0.1l0.2-1l-0.9-0.2l0.2-0.9l-1-0.2l0.2-0.9l-1-0.2l-0.2,0.9l-0.9-0.2l-0.2,1l0.9,0.2l-0.2,1l0.9,0.2
	l-0.2,0.9l1,0.2l-0.1,0.8l-1-0.2l-0.2,1l-0.8-0.1l0.2-1l-0.9-0.2l0.2-0.9l-1-0.2l0.2-0.9l-1-0.2l-0.2,0.9l-0.9-0.2l-0.2,1l0.9,0.2
	l-0.2,1l0.9,0.2l-0.2,0.9l1,0.2l-0.1,0.8l-1-0.2l-0.2,1l-0.8-0.1l0.2-1l-0.9-0.2l0.2-0.9l-1-0.2l0.2-0.9l-1-0.2l-0.2,0.9l-0.9-0.2
	l-0.2,1L478.8,278.8z M492.7,249.3l0.2-1l-0.9-0.2l0.1-0.8l0.9,0.2l0.1-0.6H491l0,0.1l-0.6-0.1H490l-0.2,1l0.9,0.2l-0.2,1l1,0.2
	l-0.2,0.9l0.9,0.2l-0.2,0.9l1,0.2l0.2-0.9l1,0.2l0.2-0.9l0.9,0.2l0.2-1l0.9,0.2l0.2-1l-0.9-0.2l0.1-0.9h-2.1l-0.1,0.7l1,0.2
	l-0.1,0.8l-1-0.2l-0.2,1L492.7,249.3z M489.3,282.5l-1-0.2l0.2-0.9l-1-0.2l-0.2,0.9l-0.9-0.2l-0.2,1l0.9,0.2l-0.2,1l1,0.2l0.2-1
	l1,0.2L489.3,282.5z M489.1,270.6l-0.2,0.9l1,0.2l0.2-0.9l1,0.2l0.2-1l-1-0.2l0.2-1l-1-0.2l-0.2,1l-0.9-0.2l-0.2,1L489.1,270.6z
	 M475.4,286.1l-0.6,3l0.3,0L475,290l-0.3,0l-0.6,3l0.4,0.1l-0.2,0.9l-0.4-0.1l-0.6,3l0.5,0.1l-0.1,0.8l-0.5-0.1l-1,5l0.7,0.1
	l-0.1,0.8l-0.7-0.1l-0.6,3l0.8,0.1l-0.1,0.8l-0.8-0.1l-1.5,7.8l0.2,0l0.2-0.9l0.8,0.1l-0.2,0.9l1,0.2l-0.1,0.8l-1-0.2l-0.2,1
	l-0.8-0.1l0.2-1l-0.2,0l-0.6,3l0.2,0l-0.2,0.9l-0.2,0l-0.1,0.6h0.4l0.1-0.4l0.8,0.1l0,0.3h2.4l-0.3,0l0.2-1l-0.9-0.2l0.1-0.8
	l0.9,0.2l0.2-0.9l0.9,0.2l0.2-1l1,0.2l0.2-1l-1-0.2l0.2-0.9l-0.9-0.2l0.2-1l-0.9-0.2l0.1-0.8l0.9,0.2l0.2-0.9l0.8,0.1l-0.2,0.9
	l1,0.2l-0.2,0.9l0.9,0.2l-0.2,1l1,0.2l0.2-1l1,0.2l0.2-1l-1-0.2l0.2-0.9l-0.9-0.2l0.2-1l-0.9-0.2l0.1-0.8l0.9,0.2l0.2-0.9l0.8,0.1
	l-0.2,0.9l1,0.2l-0.2,0.9l0.9,0.2l-0.2,1l1,0.2l0.2-1l1,0.2l0.2-1l-1-0.2l0.2-0.9l-0.9-0.2l0.2-1l-0.9-0.2l0.1-0.8l0.9,0.2l0.2-0.9
	l0.8,0.1L481,308l1,0.2l-0.2,0.9l0.9,0.2l-0.2,1l1,0.2l0.2-1l1,0.2l0.2-0.9l0.9,0.2l0.2-0.9l0.8,0.1l-0.2,0.9l1,0.2l-0.1,0.8l-1-0.2
	l-0.2,1l-0.9-0.2l-0.2,0.9l-0.9-0.2l-0.2,1l0.9,0.2l-0.2,1l1,0.2l0.2-1l1,0.2l0.2-0.9l0.9,0.2l0.2-0.9l0.8,0.1l-0.2,0.9l1,0.2
	l-0.1,0.8l-1-0.2l-0.2,1l-0.9-0.2l-0.2,0.9l-0.9-0.2l-0.2,1l0.9,0.2l-0.2,1l1,0.2l0.2-1l1,0.2l0.2-0.9l0.9,0.2l0.2-0.9l0.8,0.1
	l-0.2,0.9l0.6,0.1l0.6-3l-0.6-0.1l0.1-0.8l0.6,0.1l0.6-3l-0.7-0.1l0.2-0.9l0.7,0.1l0.6-3l-0.8-0.1l0.1-0.8l0.8,0.1l0.2-1l-0.8-0.1
	l0.2-0.9l0.9,0.1l1.5-7.7l0,0l0.2-0.9l0.1,0l0.6-3l-0.3,0l-0.2,1l-1-0.2l-0.2,0.9l-0.9-0.2l-0.2,0.9l-0.9-0.2l-0.2,1l-1-0.2
	l-0.2,0.9l-0.9-0.2l-0.2,0.9l-0.9-0.2l-0.2,1l-1-0.2l-0.2,0.9l-0.9-0.2l-0.2,0.9l-0.9-0.2l-0.2,1l-1-0.2l-0.2,0.9l-0.8-0.1l0.2-0.9
	l-0.9-0.2l0.2-1l-1-0.2l0.2-0.9l-0.9-0.2l0.2-0.9l-0.9-0.2l0.2-1l-1-0.2l0.2-0.9l-0.9-0.2l0.2-0.9l-0.9-0.2l0.2-1l-1-0.2l0.2-0.9
	l-0.9-0.2l0.2-0.9l-0.9-0.2l0.2-1l-1-0.2l0.2-0.9L475.4,286.1z M422,289.1h13.9c5.6,0,8.1,2.5,7.2,7c-0.9,4.5-4.2,6.8-9.9,6.8h-13.9
	L422,289.1z"/>
<path class="st2" d="M356,276.4l-15.7-5l-15.5,40.1c-0.3,0.8-0.9,1.5-1.8,1.7c-0.6,0.1-1.1,0.1-1.6-0.1c0.6,0.3,1.3,0.5,2,0.5
	c1.8,0.1,3.4-0.7,4.4-2.1L356,276.4z"/>
<path class="st3" d="M340.3,271.4l15.6,5.3l13.7,4.6c2.4,0.8,4.9-0.3,6.1-2.5L415,203c0.3-0.6,0.5-1.3,0.6-2h0
	c0.1-1.8-0.7-3.4-2-4.3c-0.4-0.4-0.9-0.7-1.4-0.7c-0.4-0.1-0.8-0.2-1.2-0.2c-0.8-0.1-1.7,0.1-2.4,0.4l-129.5,45.2
	c-2.6,0.9-4,3.7-3.1,6.3c0.5,1.5,1.7,2.6,3.1,3.1l0,0l29.6,10l0.2,0.1l12.7,12.8L340.3,271.4z"/>
<path class="st1" d="M340.3,271.4l73.3-71.2c1-1,1-2.5,0.1-3.5c-0.4-0.4-0.9-0.7-1.4-0.7c-0.6-0.1-1.2,0-1.8,0.4L310,259.5
	c-0.5,0.3-0.9,0.8-1.1,1.3l0,0c-0.1,0.2-0.1,0.3-0.1,0.5c0,0.3,0,0.6,0,0.9l1.5,6.8l9.5,42.3c0.1,0.6,0.4,1.1,0.8,1.4
	c0.2,0.1,0.4,0.3,0.6,0.4c0.5,0.2,1,0.2,1.6,0.1c0.9-0.2,1.6-0.9,1.8-1.7L340.3,271.4z"/>
<path class="st4" d="M289,327l3.1-2.8l0,0c0.6-0.5,1.3-0.8,2.1-0.7c4,0.3,7.9,0.5,11.7,0.7c3.9,0.2,7.9,0.2,11.7,0.2
	c3.6,0,7.2-0.1,10.9-0.3c3.6-0.2,7.2-0.6,10.7-1.1l0,0l0,0c15-12.7,27.9-19.5,40.9-24.7c-6.6,12.9-13.1,19.9-20.4,26.6l-0.1,0.1
	l-0.1,0.1l-0.2,0.2l-0.1,0.1c-1.2,1.1-2.3,2.1-3.4,3.2l-1.5,1.4l0,0l0,0l0,0l0,0l0,0l0,0l0,0l0,0l0,0l0,0l0,0l0,0l0,0l0,0l0,0l0,0
	l0,0l-0.1,0.1l0,0l0,0l-0.1,0.1l0,0l0,0l0,0c-0.3,3-0.4,5.9-0.3,8.8c0.1,2.9,0.5,5.8,1.1,8.7c0.5,2.4,1.1,4.7,1.9,7.1
	c0.7,2.4,1.6,4.7,2.4,7.1l0.3,0.8l0,0c0.4,1,0.1,2.1-0.7,2.9l-3.5,3.5c-1.1,1.2-2.8,1.2-4,0.2L332.6,353l0,0l0,0l-1.4,1.1l0,0
	l1.7,11.3l0,0c0.2,1.4-0.7,2.8-2.1,3.2l-1.9,0.5l0,0c-0.7,0.2-1.5,0.1-2.2-0.3l-4.2-2.6c-15.1-9.5-13.7-8.6-28-17.7l0,0
	c-1-0.6-1.5-1.8-1.2-3.1l0-0.2l0,0c0.3-1.2,1.4-2.1,2.7-2.2l15.6-0.4l0,0l2.4-1.4l0,0l0,0l-23.9-9.5c-0.5-0.1-0.9-0.4-1.3-0.8
	C287.8,329.8,287.9,328,289,327"/>
</svg>
